<?xml version="1.0" encoding="utf-8"?>
<svg viewBox="0 0 500 500" xmlns="http://www.w3.org/2000/svg">
  <g transform="matrix(3.438427, 0, 0, 3.433665, -176.357208, -176.038879)" style="">
    <path class="st1" d="M124,51.4c-40.1,0-72.7,32.5-72.7,72.7v0c0,0,0,0,0,0c0,40.1,32.5,72.7,72.7,72.7h0 c40.1,0,72.7-32.5,72.7-72.7C196.7,83.9,164.2,51.4,124,51.4z" style="fill: rgb(248, 72, 94);"/>
  </g>
  <path class="st2" d="M 416.771 231.194 L 321.183 231.194 L 321.183 405.625 L 207.715 405.625 C 146.166 405.625 90.808 368.539 90.808 288.879 C 90.808 229.821 121.754 172.134 207.715 172.134 L 234.191 172.134 C 234.191 172.134 244.849 200.977 248.633 231.881 L 209.09 231.881 C 173.674 231.881 153.387 251.108 153.387 288.879 C 153.387 324.59 172.298 345.878 209.09 345.878 L 259.635 345.878 L 259.635 83.547 L 320.839 83.547 L 320.839 172.134 L 416.429 172.134 L 416.429 231.194 L 416.771 231.194 Z" style="fill: rgb(255, 255, 255);"/>
</svg>